<?xml version="1.0" encoding="UTF-8" standalone="no"?>
<!DOCTYPE svg PUBLIC "-//W3C//DTD SVG 1.1//EN" "http://www.w3.org/Graphics/SVG/1.1/DTD/svg11.dtd">
<svg width="100%" height="100%" viewBox="0 0 1080 1080" version="1.1" xmlns="http://www.w3.org/2000/svg" xmlns:xlink="http://www.w3.org/1999/xlink" xml:space="preserve" xmlns:serif="http://www.serif.com/" style="fill-rule:evenodd;clip-rule:evenodd;stroke-linejoin:round;stroke-miterlimit:2;">
    <g transform="matrix(1,0,0,1,-2666.98,0)">
        <g id="Artboard2" transform="matrix(3.99215,0,0,3.99215,6103.25,0)">
            <rect x="-860.757" y="0" width="270.531" height="270.531" style="fill:none;"/>
            <g transform="matrix(1.72023,0,0,1.72023,568.694,-97.4216)">
                <g transform="matrix(0.53687,0,0,0.53687,-942.137,-158.115)">
                    <path d="M408.536,408.536C407.106,407.106 406.678,404.955 407.452,403.087C408.226,401.218 410.049,400 412.071,400C432.774,400 474.508,400 492,400C496.418,400 500,403.582 500,408L500,487.929C500,489.951 498.782,491.774 496.913,492.548C495.045,493.322 492.894,492.894 491.464,491.464C472.576,472.576 427.424,427.424 408.536,408.536Z" style="fill:rgb(64,64,64);"/>
                </g>
                <g transform="matrix(0.53687,0,0,0.53687,-942.137,-211.802)">
                    <path d="M315.071,500C315.071,500 378.308,500 392,500C396.418,500 400,503.582 400,508L400,584.929C400,589.347 396.418,592.929 392,592.929C392,592.929 328.762,592.929 315.071,592.929C310.653,592.929 307.071,589.347 307.071,584.929L307.071,508C307.071,503.582 310.653,500 315.071,500Z" style="fill:rgb(64,64,64);"/>
                </g>
                <g transform="matrix(0.53687,0,0,0.53687,-942.137,-104.428)">
                    <path d="M315.071,500C315.071,500 378.308,500 392,500C396.418,500 400,503.582 400,508L400,584.929C400,589.347 396.418,592.929 392,592.929C392,592.929 328.762,592.929 315.071,592.929C310.653,592.929 307.071,589.347 307.071,584.929L307.071,508C307.071,503.582 310.653,500 315.071,500Z" style="fill:rgb(64,64,64);"/>
                </g>
                <g transform="matrix(0.53687,0,0,0.53687,-942.137,-104.428)">
                    <path d="M315.071,500C315.071,500 378.308,500 392,500C396.418,500 400,503.582 400,508L400,584.929C400,589.347 396.418,592.929 392,592.929C392,592.929 328.762,592.929 315.071,592.929C310.653,592.929 307.071,589.347 307.071,584.929L307.071,508C307.071,503.582 310.653,500 315.071,500Z" style="fill:rgb(64,64,64);"/>
                </g>
                <g transform="matrix(-0.53687,6.57477e-17,-6.57477e-17,-0.53687,-455.158,428.646)">
                    <path d="M408.536,508.536C407.106,507.106 406.678,504.955 407.452,503.087C408.226,501.218 410.049,500 412.071,500C432.774,500 474.508,500 492,500C496.418,500 500,503.582 500,508L500,587.929C500,589.951 498.782,591.774 496.913,592.548C495.045,593.322 492.894,592.894 491.464,591.464C472.576,572.576 427.424,527.424 408.536,508.536Z" style="fill:rgb(64,64,64);"/>
                </g>
            </g>
        </g>
    </g>
</svg>
